<svg width="527" height="393" viewBox="0 0 527 393" fill="none" xmlns="http://www.w3.org/2000/svg">
<rect width="527" height="393" fill="white"/>
<mask id="mask0_2_6" style="mask-type:alpha" maskUnits="userSpaceOnUse" x="125" y="218" width="255" height="63">
<rect x="125" y="218" width="255" height="63" fill="#D9D9D9"/>
</mask>
<g mask="url(#mask0_2_6)">
<path d="M204.51 260.98C199.183 260.527 194.083 260.13 189.21 259.79C184.337 259.337 179.237 259.11 173.91 259.11C172.89 259.11 171.87 259.167 170.85 259.28C169.83 259.28 168.753 259.28 167.62 259.28C166.033 259.28 163.71 259.337 160.65 259.45C157.59 259.563 154.19 259.677 150.45 259.79C146.71 259.79 143.027 259.79 139.4 259.79H137.7L139.57 256.9C139.57 256.9 139.74 256.9 140.08 256.9C140.533 256.9 140.873 256.957 141.1 257.07C143.367 257.07 145.407 257.127 147.22 257.24C149.033 257.24 150.677 257.24 152.15 257.24C155.323 257.24 157.817 257.07 159.63 256.73C161.443 256.277 162.917 255.427 164.05 254.18C165.183 252.82 166.147 250.837 166.94 248.23C167.847 245.623 168.98 242.167 170.34 237.86C172.153 231.853 173.797 225.733 175.27 219.5C176.857 213.153 178.217 207.09 179.35 201.31C180.483 195.417 181.39 190.203 182.07 185.67C182.75 181.023 183.203 177.51 183.43 175.13C183.543 174.11 183.657 172.92 183.77 171.56C183.997 170.2 184.11 168.783 184.11 167.31C184.11 165.043 183.77 163.003 183.09 161.19C182.41 159.377 180.993 158.3 178.84 157.96C177.933 157.733 176.46 157.62 174.42 157.62C172.493 157.507 170.397 157.45 168.13 157.45C165.977 157.337 164.107 157.28 162.52 157.28H158.61L160.31 154.56L163.37 154.39C169.377 154.503 175.213 154.673 180.88 154.9C186.66 155.127 192.157 155.183 197.37 155.07C199.41 155.07 201.96 154.957 205.02 154.73C208.08 154.503 211.083 154.277 214.03 154.05C215.503 153.937 216.977 153.88 218.45 153.88C220.037 153.767 221.567 153.71 223.04 153.71C227.347 153.71 231.37 154.107 235.11 154.9C238.963 155.693 241.967 157.223 244.12 159.49C246.387 161.757 247.35 165.1 247.01 169.52C246.783 172.693 245.48 175.867 243.1 179.04C240.72 182.1 237.66 185.047 233.92 187.88C230.18 190.6 226.213 193.093 222.02 195.36C221.227 195.813 219.98 196.437 218.28 197.23C216.58 197.91 214.937 198.703 213.35 199.61C217.543 199.497 222.19 200.403 227.29 202.33C232.39 204.257 236.697 206.75 240.21 209.81C246.217 214.91 249.22 220.69 249.22 227.15C249.22 230.097 248.427 233.043 246.84 235.99C245.253 238.937 242.703 241.6 239.19 243.98L226.1 253.16C224.74 254.067 223.097 255.2 221.17 256.56C219.243 257.92 216.92 259.11 214.2 260.13C211.593 261.037 208.363 261.32 204.51 260.98ZM206.89 256.05C212.217 256.05 216.863 254.973 220.83 252.82C224.457 250.667 227.12 247.833 228.82 244.32C230.633 240.807 231.54 237.123 231.54 233.27C231.54 229.53 230.747 225.903 229.16 222.39C227.573 218.877 225.42 215.647 222.7 212.7C220.093 209.64 217.147 207.26 213.86 205.56C210.573 203.747 207.06 203.01 203.32 203.35H202.98C202.3 203.35 201.96 203.18 201.96 202.84C201.96 202.16 202.64 201.65 204 201.31C209.44 199.837 213.917 197.627 217.43 194.68C221.057 191.733 223.833 188.447 225.76 184.82C227.8 181.08 228.99 177.51 229.33 174.11C229.33 173.657 229.33 173.26 229.33 172.92C229.443 172.58 229.5 172.183 229.5 171.73C229.5 167.083 228.197 163.513 225.59 161.02C222.983 158.527 220.037 157.28 216.75 157.28C213.577 157.28 210.46 158.47 207.4 160.85C204.34 163.23 202.13 166.913 200.77 171.9C200.203 173.94 199.353 177.057 198.22 181.25C197.2 185.443 196.067 190.26 194.82 195.7C193.573 201.027 192.383 206.58 191.25 212.36C190.117 218.14 189.21 223.637 188.53 228.85C187.85 233.95 187.567 238.37 187.68 242.11C187.793 245.397 188.757 248.06 190.57 250.1C192.497 252.14 194.877 253.67 197.71 254.69C200.657 255.597 203.717 256.05 206.89 256.05ZM263.72 259.79C263.38 259.79 263.21 259.62 263.21 259.28C263.21 258.827 263.494 258.317 264.06 257.75C264.627 257.07 265.137 256.787 265.59 256.9C267.29 256.9 268.877 256.957 270.35 257.07C271.937 257.07 273.354 257.07 274.6 257.07C278.68 257.07 281.854 256.9 284.12 256.56C286.5 256.107 288.314 255.257 289.56 254.01C290.92 252.65 292.054 250.667 292.96 248.06C293.867 245.453 294.887 241.997 296.02 237.69C298.854 227.49 301.347 217.177 303.5 206.75C305.767 196.21 307.807 185.727 309.62 175.3C309.847 174.053 310.017 172.863 310.13 171.73C310.357 170.597 310.47 169.633 310.47 168.84C310.47 165.893 309.507 163.967 307.58 163.06C305.767 162.153 302.537 161.7 297.89 161.7C291.09 161.7 285.48 163.91 281.06 168.33C276.64 172.637 272.9 178.53 269.84 186.01C269.727 186.35 269.5 186.52 269.16 186.52C268.934 186.52 268.65 186.35 268.31 186.01C268.084 185.557 268.027 185.103 268.14 184.65C268.707 183.29 269.33 181.477 270.01 179.21C270.69 176.83 271.54 174.28 272.56 171.56C273.807 168.273 274.884 165.27 275.79 162.55C276.81 159.717 278.114 157.45 279.7 155.75C281.287 154.05 283.61 153.313 286.67 153.54C290.977 153.88 296.417 154.277 302.99 154.73C309.677 155.07 316.647 155.24 323.9 155.24C327.98 155.24 331.607 155.183 334.78 155.07C338.067 154.957 341.41 154.787 344.81 154.56C348.21 154.333 352.29 154.107 357.05 153.88C359.997 153.653 362.037 154.05 363.17 155.07C364.304 155.977 364.87 157.563 364.87 159.83C364.87 161.19 364.7 162.833 364.36 164.76C363.907 167.367 363.51 169.69 363.17 171.73C362.944 173.77 362.717 175.867 362.49 178.02C362.377 180.173 362.094 182.78 361.64 185.84C361.527 186.52 361.13 186.86 360.45 186.86C360.11 186.86 359.77 186.633 359.43 186.18C359.204 185.727 359.147 185.103 359.26 184.31C359.6 182.043 359.77 180.06 359.77 178.36C359.77 172.693 358.467 168.783 355.86 166.63C353.254 164.363 349.854 163.23 345.66 163.23C340.22 163.23 336.197 163.853 333.59 165.1C330.984 166.347 329.227 167.707 328.32 169.18C327.414 170.54 326.62 171.617 325.94 172.41C325.6 172.863 325.034 174.677 324.24 177.85C323.447 181.023 322.54 185.047 321.52 189.92C320.5 194.793 319.48 199.95 318.46 205.39C317.44 210.83 316.477 216.1 315.57 221.2C314.664 226.3 313.927 230.663 313.36 234.29C312.794 237.917 312.51 240.297 312.51 241.43C312.51 242.11 312.454 243.017 312.34 244.15C312.227 245.17 312.17 246.303 312.17 247.55C312.17 249.477 312.454 251.29 313.02 252.99C313.587 254.69 314.834 255.71 316.76 256.05C317.667 256.163 319.197 256.277 321.35 256.39C323.617 256.503 326.11 256.617 328.83 256.73C331.664 256.843 334.327 256.9 336.82 256.9C339.314 256.9 341.184 256.843 342.43 256.73C342.997 256.73 343.28 256.957 343.28 257.41C343.28 257.863 342.997 258.373 342.43 258.94C341.864 259.507 341.297 259.79 340.73 259.79C337.784 259.79 334.044 259.733 329.51 259.62C324.977 259.507 320.217 259.393 315.23 259.28C310.357 259.167 305.824 259.11 301.63 259.11C300.157 259.11 298.684 259.11 297.21 259.11C295.85 259.11 294.604 259.167 293.47 259.28C291.884 259.28 289.447 259.337 286.16 259.45C282.874 259.563 279.247 259.677 275.28 259.79C271.314 259.79 267.517 259.79 263.89 259.79H263.72Z" fill="#4B9595"/>
</g>
<mask id="mask1_2_6" style="mask-type:alpha" maskUnits="userSpaceOnUse" x="123" y="118" width="267" height="81">
<rect x="123" y="118" width="267" height="81" fill="#D9D9D9"/>
</mask>
<g mask="url(#mask1_2_6)">
<path d="M204.51 260.98C199.183 260.527 194.083 260.13 189.21 259.79C184.337 259.337 179.237 259.11 173.91 259.11C172.89 259.11 171.87 259.167 170.85 259.28C169.83 259.28 168.753 259.28 167.62 259.28C166.033 259.28 163.71 259.337 160.65 259.45C157.59 259.563 154.19 259.677 150.45 259.79C146.71 259.79 143.027 259.79 139.4 259.79H137.7L139.57 256.9C139.57 256.9 139.74 256.9 140.08 256.9C140.533 256.9 140.873 256.957 141.1 257.07C143.367 257.07 145.407 257.127 147.22 257.24C149.033 257.24 150.677 257.24 152.15 257.24C155.323 257.24 157.817 257.07 159.63 256.73C161.443 256.277 162.917 255.427 164.05 254.18C165.183 252.82 166.147 250.837 166.94 248.23C167.847 245.623 168.98 242.167 170.34 237.86C172.153 231.853 173.797 225.733 175.27 219.5C176.857 213.153 178.217 207.09 179.35 201.31C180.483 195.417 181.39 190.203 182.07 185.67C182.75 181.023 183.203 177.51 183.43 175.13C183.543 174.11 183.657 172.92 183.77 171.56C183.997 170.2 184.11 168.783 184.11 167.31C184.11 165.043 183.77 163.003 183.09 161.19C182.41 159.377 180.993 158.3 178.84 157.96C177.933 157.733 176.46 157.62 174.42 157.62C172.493 157.507 170.397 157.45 168.13 157.45C165.977 157.337 164.107 157.28 162.52 157.28H158.61L160.31 154.56L163.37 154.39C169.377 154.503 175.213 154.673 180.88 154.9C186.66 155.127 192.157 155.183 197.37 155.07C199.41 155.07 201.96 154.957 205.02 154.73C208.08 154.503 211.083 154.277 214.03 154.05C215.503 153.937 216.977 153.88 218.45 153.88C220.037 153.767 221.567 153.71 223.04 153.71C227.347 153.71 231.37 154.107 235.11 154.9C238.963 155.693 241.967 157.223 244.12 159.49C246.387 161.757 247.35 165.1 247.01 169.52C246.783 172.693 245.48 175.867 243.1 179.04C240.72 182.1 237.66 185.047 233.92 187.88C230.18 190.6 226.213 193.093 222.02 195.36C221.227 195.813 219.98 196.437 218.28 197.23C216.58 197.91 214.937 198.703 213.35 199.61C217.543 199.497 222.19 200.403 227.29 202.33C232.39 204.257 236.697 206.75 240.21 209.81C246.217 214.91 249.22 220.69 249.22 227.15C249.22 230.097 248.427 233.043 246.84 235.99C245.253 238.937 242.703 241.6 239.19 243.98L226.1 253.16C224.74 254.067 223.097 255.2 221.17 256.56C219.243 257.92 216.92 259.11 214.2 260.13C211.593 261.037 208.363 261.32 204.51 260.98ZM206.89 256.05C212.217 256.05 216.863 254.973 220.83 252.82C224.457 250.667 227.12 247.833 228.82 244.32C230.633 240.807 231.54 237.123 231.54 233.27C231.54 229.53 230.747 225.903 229.16 222.39C227.573 218.877 225.42 215.647 222.7 212.7C220.093 209.64 217.147 207.26 213.86 205.56C210.573 203.747 207.06 203.01 203.32 203.35H202.98C202.3 203.35 201.96 203.18 201.96 202.84C201.96 202.16 202.64 201.65 204 201.31C209.44 199.837 213.917 197.627 217.43 194.68C221.057 191.733 223.833 188.447 225.76 184.82C227.8 181.08 228.99 177.51 229.33 174.11C229.33 173.657 229.33 173.26 229.33 172.92C229.443 172.58 229.5 172.183 229.5 171.73C229.5 167.083 228.197 163.513 225.59 161.02C222.983 158.527 220.037 157.28 216.75 157.28C213.577 157.28 210.46 158.47 207.4 160.85C204.34 163.23 202.13 166.913 200.77 171.9C200.203 173.94 199.353 177.057 198.22 181.25C197.2 185.443 196.067 190.26 194.82 195.7C193.573 201.027 192.383 206.58 191.25 212.36C190.117 218.14 189.21 223.637 188.53 228.85C187.85 233.95 187.567 238.37 187.68 242.11C187.793 245.397 188.757 248.06 190.57 250.1C192.497 252.14 194.877 253.67 197.71 254.69C200.657 255.597 203.717 256.05 206.89 256.05ZM263.72 259.79C263.38 259.79 263.21 259.62 263.21 259.28C263.21 258.827 263.494 258.317 264.06 257.75C264.627 257.07 265.137 256.787 265.59 256.9C267.29 256.9 268.877 256.957 270.35 257.07C271.937 257.07 273.354 257.07 274.6 257.07C278.68 257.07 281.854 256.9 284.12 256.56C286.5 256.107 288.314 255.257 289.56 254.01C290.92 252.65 292.054 250.667 292.96 248.06C293.867 245.453 294.887 241.997 296.02 237.69C298.854 227.49 301.347 217.177 303.5 206.75C305.767 196.21 307.807 185.727 309.62 175.3C309.847 174.053 310.017 172.863 310.13 171.73C310.357 170.597 310.47 169.633 310.47 168.84C310.47 165.893 309.507 163.967 307.58 163.06C305.767 162.153 302.537 161.7 297.89 161.7C291.09 161.7 285.48 163.91 281.06 168.33C276.64 172.637 272.9 178.53 269.84 186.01C269.727 186.35 269.5 186.52 269.16 186.52C268.934 186.52 268.65 186.35 268.31 186.01C268.084 185.557 268.027 185.103 268.14 184.65C268.707 183.29 269.33 181.477 270.01 179.21C270.69 176.83 271.54 174.28 272.56 171.56C273.807 168.273 274.884 165.27 275.79 162.55C276.81 159.717 278.114 157.45 279.7 155.75C281.287 154.05 283.61 153.313 286.67 153.54C290.977 153.88 296.417 154.277 302.99 154.73C309.677 155.07 316.647 155.24 323.9 155.24C327.98 155.24 331.607 155.183 334.78 155.07C338.067 154.957 341.41 154.787 344.81 154.56C348.21 154.333 352.29 154.107 357.05 153.88C359.997 153.653 362.037 154.05 363.17 155.07C364.304 155.977 364.87 157.563 364.87 159.83C364.87 161.19 364.7 162.833 364.36 164.76C363.907 167.367 363.51 169.69 363.17 171.73C362.944 173.77 362.717 175.867 362.49 178.02C362.377 180.173 362.094 182.78 361.64 185.84C361.527 186.52 361.13 186.86 360.45 186.86C360.11 186.86 359.77 186.633 359.43 186.18C359.204 185.727 359.147 185.103 359.26 184.31C359.6 182.043 359.77 180.06 359.77 178.36C359.77 172.693 358.467 168.783 355.86 166.63C353.254 164.363 349.854 163.23 345.66 163.23C340.22 163.23 336.197 163.853 333.59 165.1C330.984 166.347 329.227 167.707 328.32 169.18C327.414 170.54 326.62 171.617 325.94 172.41C325.6 172.863 325.034 174.677 324.24 177.85C323.447 181.023 322.54 185.047 321.52 189.92C320.5 194.793 319.48 199.95 318.46 205.39C317.44 210.83 316.477 216.1 315.57 221.2C314.664 226.3 313.927 230.663 313.36 234.29C312.794 237.917 312.51 240.297 312.51 241.43C312.51 242.11 312.454 243.017 312.34 244.15C312.227 245.17 312.17 246.303 312.17 247.55C312.17 249.477 312.454 251.29 313.02 252.99C313.587 254.69 314.834 255.71 316.76 256.05C317.667 256.163 319.197 256.277 321.35 256.39C323.617 256.503 326.11 256.617 328.83 256.73C331.664 256.843 334.327 256.9 336.82 256.9C339.314 256.9 341.184 256.843 342.43 256.73C342.997 256.73 343.28 256.957 343.28 257.41C343.28 257.863 342.997 258.373 342.43 258.94C341.864 259.507 341.297 259.79 340.73 259.79C337.784 259.79 334.044 259.733 329.51 259.62C324.977 259.507 320.217 259.393 315.23 259.28C310.357 259.167 305.824 259.11 301.63 259.11C300.157 259.11 298.684 259.11 297.21 259.11C295.85 259.11 294.604 259.167 293.47 259.28C291.884 259.28 289.447 259.337 286.16 259.45C282.874 259.563 279.247 259.677 275.28 259.79C271.314 259.79 267.517 259.79 263.89 259.79H263.72Z" fill="#4B9595"/>
</g>
</svg>
